<svg fill="#669933" xmlns="http://www.w3.org/2000/svg" viewBox="0 0 100 100" x="0px" y="0px"><title>browser-set</title><path d="M74.29,36.51H21.17V53.7H74.29V36.51ZM72.49,51.9H23V38.31H72.49V51.9ZM55.22,74.23h-34V57H57.55a13.14,13.14,0,0,0-1.74,1.8H23V72.43H54.21A13,13,0,0,0,55.22,74.23Zm-7.81-5.5v-6.2h-6.2v6.2h6.2ZM43,64.33h2.6v2.6H43v-2.6Zm24.17-3.67a5.33,5.33,0,0,1,4.09,1.92l0-.12a0.91,0.91,0,0,1,1.76.44l-0.56,2.22a0.91,0.91,0,0,1-.88.69H71.48a0.89,0.89,0,0,1-.41-0.11l-1.89-.47a0.91,0.91,0,0,1,.43-1.76,3.52,3.52,0,0,0-5.85,1.67A0.91,0.91,0,0,1,62,64.68,5.35,5.35,0,0,1,67.18,60.67Zm5.18,8.51a5.34,5.34,0,0,1-9.55,1.73,0.9,0.9,0,0,1-.63.27l-0.22,0A0.91,0.91,0,0,1,61.3,70l0.56-2.22a0.91,0.91,0,0,1,1.1-.66l2.22,0.56a0.91,0.91,0,0,1-.44,1.76L64,69.28a3.53,3.53,0,0,0,6.64-.56A0.91,0.91,0,1,1,72.36,69.18Zm-39.61-.45v-6.2h-6.2v6.2h6.2Zm-4.4-4.4h2.6v2.6h-2.6v-2.6Zm27,2.6A11.82,11.82,0,1,0,67.18,55.11,11.83,11.83,0,0,0,55.36,66.93Zm21.49,0a9.67,9.67,0,1,1-9.67-9.67A9.68,9.68,0,0,1,76.85,66.93Zm-36.77,1.8v-6.2h-6.2v6.2h6.2Zm-4.4-4.4h2.6v2.6h-2.6v-2.6ZM21.62,21.67a3.44,3.44,0,1,0-3.44-3.44A3.45,3.45,0,0,0,21.62,21.67Zm0-4.89a1.44,1.44,0,1,1-1.44,1.44A1.45,1.45,0,0,1,21.62,16.78ZM94,9.89H6a1,1,0,0,0-1,1V89.11a1,1,0,0,0,1,1H94a1,1,0,0,0,1-1V10.89A1,1,0,0,0,94,9.89ZM93,88.11H7V26.56H93V88.11Zm0-63.56H7V11.89H93V24.56ZM13.3,21.67a3.44,3.44,0,1,0-3.44-3.44A3.45,3.45,0,0,0,13.3,21.67Zm0-4.89a1.44,1.44,0,1,1-1.44,1.44A1.45,1.45,0,0,1,13.3,16.78Zm16.62,4.89a3.44,3.44,0,1,0-3.44-3.44A3.45,3.45,0,0,0,29.93,21.67Zm0-4.89a1.44,1.44,0,1,1-1.44,1.44A1.45,1.45,0,0,1,29.93,16.78ZM32.75,42h-6.2v6.2h6.2V42Zm-1.8,4.4h-2.6v-2.6h2.6v2.6ZM47.41,42h-6.2v6.2h6.2V42Zm-1.8,4.4H43v-2.6h2.6v2.6ZM40.08,42h-6.2v6.2h6.2V42Zm-1.8,4.4h-2.6v-2.6h2.6v2.6Zm29.55-3.67H57.08A2.24,2.24,0,0,0,54.83,45v0.25a2.24,2.24,0,0,0,2.24,2.24H67.83a2.24,2.24,0,0,0,2.24-2.24V45A2.24,2.24,0,0,0,67.83,42.74Zm0.44,2.49a0.45,0.45,0,0,1-.44.44H57.08a0.45,0.45,0,0,1-.44-0.44V45a0.45,0.45,0,0,1,.44-0.44H67.83a0.45,0.45,0,0,1,.44.44v0.25Z"></path></svg>